<?xml version="1.0" standalone="no"?>
<!DOCTYPE svg PUBLIC "-//W3C//DTD SVG 20010904//EN"
 "http://www.w3.org/TR/2001/REC-SVG-20010904/DTD/svg10.dtd">
<svg version="1.0" xmlns="http://www.w3.org/2000/svg"
 width="260.000000pt" height="260.000000pt" viewBox="0 0 260.000000 260.000000"
 preserveAspectRatio="xMidYMid meet">
<metadata>
Created by potrace 1.14, written by Peter Selinger 2001-2017
</metadata>
<g transform="translate(0.000000,260.000000) scale(0.100000,-0.100000)"
fill="#000000" stroke="none">
<path d="M715 2268 c-166 -21 -269 -92 -315 -215 -24 -65 -31 -129 -34 -318
-4 -224 -32 -270 -181 -290 -27 -3 -51 -8 -53 -10 -3 -3 -5 -223 -3 -277 1
-13 9 -18 32 -18 53 0 117 -21 146 -49 50 -46 56 -72 59 -259 2 -95 8 -197 13
-225 22 -120 86 -208 186 -253 57 -26 196 -51 285 -50 l55 1 3 123 c3 125 2
128 -36 123 -34 -5 -122 31 -146 59 -31 38 -37 78 -40 281 -3 181 -12 228 -54
276 -34 38 -129 89 -183 98 -64 11 -51 36 33 63 89 28 153 79 181 141 18 40
21 70 23 228 2 99 7 199 13 220 19 69 89 113 179 113 l32 0 0 126 0 125 -67
-3 c-38 -1 -95 -6 -128 -10z"/>
<path d="M1679 2274 c-1 -11 -1 -227 0 -235 1 -4 27 -9 59 -13 32 -4 72 -15
89 -26 55 -33 66 -69 70 -220 6 -250 9 -275 33 -324 28 -58 96 -107 186 -132
48 -14 64 -23 64 -36 0 -10 -3 -17 -7 -16 -16 4 -100 -25 -146 -50 -47 -25
-94 -75 -112 -117 -5 -11 -11 -112 -14 -225 -6 -180 -9 -210 -27 -244 -24 -47
-69 -73 -139 -81 -27 -4 -52 -10 -55 -15 -4 -6 -4 -158 -1 -228 2 -22 217 -3
308 29 104 36 166 99 206 208 16 46 21 88 24 241 5 205 12 245 48 289 28 33
100 61 157 61 l38 0 0 150 c0 149 0 150 -22 151 -121 6 -184 46 -209 131 -4
17 -9 98 -10 181 -1 178 -11 248 -43 320 -47 106 -134 166 -280 191 -64 11
-216 18 -217 10z"/>
<path d="M1275 1838 c-81 -17 -145 -95 -145 -179 0 -160 190 -247 307 -141
119 107 67 287 -92 322 -16 3 -48 2 -70 -2z"/>
<path d="M1179 843 c-5 -159 -26 -299 -72 -485 l-24 -98 107 0 107 0 16 38
c63 146 121 360 133 487 2 33 7 66 9 73 3 9 -28 12 -135 12 l-140 0 -1 -27z"/>
</g>
</svg>
